<svg width="16" height="16" viewBox="0 0 16 16" fill="none" xmlns="http://www.w3.org/2000/svg">
<path d="M15.2727 4H12.1818V3.68C12.1818 1.648 10.3091 0 8 0C5.69091 0 3.81818 1.648 3.81818 3.68V4H0.727273C0.325 4 0 4.286 0 4.64V15.36C0 15.714 0.325 16 0.727273 16H15.2727C15.675 16 16 15.714 16 15.36V4.64C16 4.286 15.675 4 15.2727 4ZM5.45455 3.68C5.45455 2.442 6.59318 1.44 8 1.44C9.40682 1.44 10.5455 2.442 10.5455 3.68V4H5.45455V3.68ZM14.3636 14.56H1.63636V5.44H3.81818V7.2C3.81818 7.288 3.9 7.36 4 7.36H5.27273C5.37273 7.36 5.45455 7.288 5.45455 7.2V5.44H10.5455V7.2C10.5455 7.288 10.6273 7.36 10.7273 7.36H12C12.1 7.36 12.1818 7.288 12.1818 7.2V5.44H14.3636V14.56Z" fill="#3B414F"/>
</svg>
